<svg width="24" height="24" viewBox="0 0 24 24" fill="none" xmlns="http://www.w3.org/2000/svg">
<path d="M9.00008 7.00046C9.39784 7.00051 9.77936 7.15866 10.0606 7.43992C10.3417 7.72119 10.5001 8.10279 10.5001 8.50046V10.0005C10.5 10.2332 10.4459 10.4632 10.3419 10.6714C10.2377 10.8795 10.0857 11.061 9.89949 11.2007L9.66902 11.3725C10.3017 12.6567 11.3405 13.6963 12.6241 14.3296L12.7999 14.1001L12.8546 14.0317C12.9857 13.8767 13.147 13.7497 13.3292 13.6587C13.5375 13.5545 13.7672 13.5005 14.0001 13.5005H15.5001C15.8978 13.5005 16.2794 13.6587 16.5606 13.9399C16.8417 14.2212 17.0001 14.6028 17.0001 15.0005V16.5005C17 16.8981 16.8418 17.2798 16.5606 17.561C16.2794 17.8422 15.8978 18.0004 15.5001 18.0005C12.9805 18.0005 10.5639 16.9989 8.7823 15.2173C7.00092 13.4358 6.0002 11.0198 6.00008 8.50046C6.00008 8.10271 6.15831 7.72121 6.43953 7.43992C6.72083 7.15861 7.10225 7.00046 7.50008 7.00046H9.00008Z" fill="currentColor"/>
<path fill-rule="evenodd" clip-rule="evenodd" d="M5.60555 3.05027C7.71486 1.54342 10.2891 0.829909 12.8731 1.03562C15.4574 1.24148 17.8863 2.35337 19.7305 4.17527C21.5747 5.99705 22.7167 8.41134 22.9542 10.9927C23.1915 13.5741 22.5093 16.157 21.0284 18.2846C19.5473 20.4123 17.3618 21.9488 14.8585 22.6225C12.3746 23.2909 9.73585 23.0668 7.40047 21.9917C7.23758 21.9325 7.0624 21.9168 6.89168 21.9458L3.53719 22.9272C3.52944 22.9295 3.52154 22.932 3.51375 22.9341C3.1846 23.0214 2.83795 23.0228 2.50789 22.9389C2.17792 22.8551 1.87454 22.6883 1.62703 22.4546C1.37945 22.2206 1.1953 21.9269 1.09285 21.602C0.990477 21.2773 0.972614 20.9316 1.04109 20.5981L1.06941 20.4907L2.11238 17.269C2.14801 17.0851 2.13283 16.8952 2.06551 16.7202C0.962477 14.3984 0.705962 11.7633 1.34383 9.27195C1.98686 6.76081 3.49643 4.55721 5.60555 3.05027ZM12.7149 3.02878C10.6006 2.8604 8.4945 3.44433 6.76863 4.67722C5.04281 5.91018 3.80748 7.71333 3.28133 9.76804C2.78817 11.6942 2.94805 13.7257 3.72859 15.5464L3.89265 15.9077L3.92097 15.9741C4.14141 16.5303 4.19119 17.1397 4.06258 17.7241C4.05569 17.7553 4.04703 17.7864 4.03719 17.8169L3.00691 20.9975L6.38875 20.0093C6.41706 20.001 6.44673 19.9945 6.47566 19.9887C6.9582 19.8931 7.45592 19.9167 7.92488 20.0581L8.1241 20.1264L8.19148 20.1548C10.1133 21.0522 12.2908 21.2421 14.3389 20.6909C16.3871 20.1397 18.175 18.8828 19.3868 17.1421C20.5985 15.4013 21.1562 13.2883 20.962 11.1762C20.7677 9.06423 19.8341 7.08872 18.3253 5.59812C16.8163 4.10751 14.8292 3.19725 12.7149 3.02878Z" fill="currentColor"/>
</svg>
